<?xml version="1.0" encoding="UTF-8"?><svg id="Layer_1" xmlns="http://www.w3.org/2000/svg" xmlns:xlink="http://www.w3.org/1999/xlink" viewBox="0 0 515.89 203.01">
      <defs>
        <linearGradient
          id="linear-gradient"
          x1="32.74"
          y1="45.47"
          x2="199.66"
          y2="157.11"
          gradientUnits="userSpaceOnUse"
        >
          <stop offset="0" stop-color="#4777ff" />
          <stop offset=".12" stop-color="#7e64d7" />
          <stop offset=".33" stop-color="#da4494" />
          <stop offset=".42" stop-color="#ff387a" />
          <stop offset=".81" stop-color="#ffd503" />
          <stop offset="1" stop-color="#00db00" />
        </linearGradient>
        <linearGradient
          id="linear-gradient-2"
          x1="-8.99"
          y1="30.8"
          x2="179.23"
          y2="202.3"
          xlink:href="#linear-gradient"
        />
      </defs>
      <g>
        <g>
          <path
            d="M271.8,83.48l-7.98,8.52v18.87h-21.14V35.38h21.14v31.38l29.23-31.38h23.51l-30.84,33.43,32.46,42.06h-24.81l-21.57-27.39Z"
            style="fill:#009;"
          />
          <path
            d="M380.19,52.42l-25.24,60.83c-6.15,15.1-14.78,19.52-26.32,19.52-6.15,0-13.05-2.05-16.93-5.28l7.12-14.34c2.37,2.16,5.82,3.45,9.06,3.45,3.99,0,6.26-1.51,7.98-4.96l-25.02-59.21h21.03l14.34,35.7,14.45-35.7h19.52Z"
            style="fill:#009;"
          />
          <path
            d="M447.7,77.44v33.43h-20.49v-30.09c0-8.41-3.67-11.97-9.6-11.97-6.58,0-11.65,4.1-11.65,13.8v28.26h-20.49V52.42h19.52v6.36c4.64-4.85,11.22-7.33,18.55-7.33,13.7,0,24.16,7.87,24.16,25.99Z"
            style="fill:#009;"
          />
          <path
            d="M515.32,78.41v32.46h-19.09v-7.55c-2.91,5.61-8.74,8.52-17.26,8.52-14.02,0-21.78-7.87-21.78-18.01,0-10.78,7.87-17.47,25.99-17.47h11.65c-.32-5.93-4.31-9.27-12.4-9.27-5.61,0-11.86,1.94-15.85,5.07l-6.9-13.91c6.69-4.42,16.61-6.79,25.78-6.79,18.98,0,29.87,8.41,29.87,26.96Zm-20.49,13.7v-5.07h-8.84c-6.58,0-8.95,2.37-8.95,5.93s2.8,5.93,7.66,5.93c4.53,0,8.52-2.16,10.14-6.79Z"
            style="fill:#009;"
          />
          <path
            d="M265.2,170.23h-16.51l-3.07,7.59h-11.27l17.24-39.05h10.88l17.29,39.05h-11.49l-3.07-7.59Zm-3.24-8.14l-5.02-12.49-5.02,12.49h10.04Z"
            style="fill:#009;"
          />
          <path
            d="M280.2,162.64c0-9.09,7.2-15.56,17.35-15.56,6.86,0,12.1,3.07,14.17,8.31l-8.2,4.18c-1.45-2.84-3.57-4.07-6.02-4.07-3.68,0-6.58,2.57-6.58,7.14s2.9,7.25,6.58,7.25c2.45,0,4.57-1.23,6.02-4.07l8.2,4.18c-2.06,5.24-7.31,8.31-14.17,8.31-10.15,0-17.35-6.47-17.35-15.67Z"
            style="fill:#009;"
          />
          <path
            d="M344.07,161.02v16.79h-9.87v-3.9c-1.51,2.9-4.52,4.41-8.92,4.41-7.25,0-11.27-4.07-11.27-9.32,0-5.58,4.07-9.04,13.44-9.04h6.02c-.17-3.07-2.23-4.8-6.41-4.8-2.9,0-6.14,1-8.2,2.62l-3.57-7.2c3.46-2.29,8.59-3.51,13.33-3.51,9.82,0,15.45,4.35,15.45,13.94Zm-10.6,7.08v-2.62h-4.57c-3.4,0-4.63,1.23-4.63,3.07s1.45,3.07,3.96,3.07c2.34,0,4.41-1.12,5.24-3.51Z"
            style="fill:#009;"
          />
          <path
            d="M383.34,136.42v41.39h-10.1v-3.01c-2.01,2.4-4.96,3.51-8.87,3.51-8.26,0-14.89-6.02-14.89-15.67s6.64-15.56,14.89-15.56c3.51,0,6.36,1,8.37,3.12v-13.78h10.6Zm-10.43,26.22c0-4.57-2.73-7.14-6.3-7.14s-6.36,2.57-6.36,7.14,2.73,7.25,6.36,7.25,6.3-2.62,6.3-7.25Z"
            style="fill:#009;"
          />
          <path
            d="M420.89,165.37h-21.98c.89,3.07,3.51,4.85,7.42,4.85,2.96,0,4.91-.84,6.97-2.62l5.58,5.8c-2.9,3.24-7.14,4.91-12.89,4.91-10.77,0-17.74-6.64-17.74-15.67s7.08-15.56,16.62-15.56c8.92,0,16.18,5.69,16.18,15.67,0,.78-.11,1.78-.17,2.62Zm-22.15-5.58h12.38c-.56-3.18-2.9-5.19-6.19-5.19s-5.58,2.01-6.19,5.19Z"
            style="fill:#009;"
          />
          <path
            d="M477.56,160.52v17.29h-10.6v-15.56c0-4.35-1.78-6.19-4.57-6.19-3.07,0-5.3,2.06-5.3,6.75v15.01h-10.6v-15.56c0-4.35-1.73-6.19-4.57-6.19-3.12,0-5.36,2.06-5.36,6.75v15.01h-10.6v-30.23h10.1v3.18c2.29-2.45,5.47-3.68,9.04-3.68,4.13,0,7.64,1.51,9.76,4.74,2.4-3.01,6.14-4.74,10.49-4.74,7.03,0,12.22,4.07,12.22,13.44Z"
            style="fill:#009;"
          />
          <path
            d="M515.55,147.58l-13.05,31.46c-3.18,7.81-7.64,10.1-13.61,10.1-3.18,0-6.75-1.06-8.76-2.73l3.68-7.42c1.23,1.12,3.01,1.78,4.69,1.78,2.06,0,3.24-.78,4.13-2.57l-12.94-30.62h10.88l7.42,18.46,7.47-18.46h10.1Z"
            style="fill:#009;"
          />
        </g>
        <g>
          <g>
            <g>
              <path
                d="M185.07,131.21c.48,1.08,.62,2.3,1.03,3.88-.76,2.55-1.44,5.41-2.45,8.16-1.65,4.52-3.87,8.78-7.06,12.43-3.06,3.5-4.94,3.73-8.59,.84-5.51-4.37-9.56-9.91-12.35-16.36-1.09-2.52-.95-5.07,.08-7.57,2.12-5.18,5.46-9.43,9.89-12.84,2.5-1.93,5.1-2.2,7.87-.66,5.12,2.84,9.19,6.7,11.58,12.12Z"
                style="fill:url(#linear-gradient);"
              />
            </g>
            <g>
              <path
                d="M90.88,42.23c2.46-.39,4.55-.77,6.66-1.05,5.37-.72,10.73-1.5,16.11-2.08,7.63-.83,15.29-1.46,22.97-1.12,1.87,.08,3.73,.45,5.58,.79,.77,.14,1.55,.48,2.24,.87,1.42,.8,1.86,2.01,1.02,3.39-.78,1.28-1.71,2.6-2.88,3.51-4.89,3.8-9.83,7.52-14.86,11.13-7.44,5.35-14.98,10.57-21.46,17.11-1.7,1.72-3.25,3.6-4.77,5.48-4.86,6.03-5.96,12.78-4.01,20.23,2.32,8.83,6.21,16.96,10.68,24.83,9.39,16.56,20.43,31.98,32.88,46.38,2.46,2.85,5.89,3.82,9.45,4.29,6.61,.87,13.13,.09,19.81-1.31-.28,.41-.43,.7-.64,.94-6.96,8.16-14.37,15.84-23.31,21.88-3.39,2.29-6.97,4.19-11.07,4.98-3.85,.74-7.17-.21-10.07-2.81-3.72-3.33-6.72-7.28-9.19-11.56-5.78-10.01-11.39-20.11-17-30.22-4.79-8.62-9.49-17.3-15.36-25.26-2.78-3.77-5.81-7.31-9.65-10.08-4.09-2.94-8.34-3.33-12.89-1.13-4.72,2.28-8.64,5.62-12.36,9.21-6.7,6.48-12.55,13.71-18.4,20.94-4.81,5.93-9.61,11.86-14.52,17.71-1.58,1.88-3.47,3.51-5.29,5.18-.61,.56-1.4,.97-2.18,1.3-1.43,.61-2.68,.16-2.9-1.34-.3-2.01-.45-4.13-.15-6.12,1.52-10.12,4.91-19.74,8.04-29.43,5.28-16.36,10.79-32.64,15.83-49.08,2.33-7.62,3.91-15.49,5.56-23.31,2.39-11.28-.85-21.21-7.66-30.26-5.07-6.74-10.97-12.71-16.84-18.72-2.89-2.95-5.61-6.06-8.35-9.15-.61-.69-1.06-1.56-1.44-2.42C-.57,3.63,.14,1.68,2.52,.84,4.01,.31,5.67-.04,7.25,0c15.27,.42,28.22,5.29,36.68,19,4.82,7.82,8.6,16.04,10.1,25.11,.61,3.68,.48,7.53,.28,11.27-.28,5.05-.9,10.09-1.47,15.11-.53,4.72-1.27,9.41-1.76,14.13-.57,5.53-1.39,11.05-.65,16.63,.02,.18,.02,.36,.05,.54,.75,3.89,2.59,4.91,5.94,2.81,3.06-1.92,6.02-4.11,8.65-6.59,13.37-12.62,25.12-26.66,35.87-41.55,.29-.4,.56-.82,.83-1.23,1.74-2.65,1.84-4-.57-6.09-2.55-2.21-5.52-3.93-8.32-5.85-.51-.35-1.08-.59-1.97-1.07Z"
                style="fill:url(#linear-gradient-2);"
              />
              <path
                d="M186.1,135.09c-.76,2.55-1.44,5.41-2.45,8.16-1.65,4.52-3.87,8.78-7.06,12.43-3.06,3.5-4.94,3.73-8.59,.84-5.51-4.37-9.56-9.91-12.35-16.36-1.09-2.52-.95-5.07,.08-7.57,2.12-5.18,5.46-9.43,9.89-12.84,2.5-1.93,5.1-2.2,7.87-.66,5.12,2.84,9.19,6.7,11.58,12.12,.48,1.08,.62,2.3,1.03,3.88Z"
                style="fill:none;stroke:none;"
              />
            </g>
          </g>
        </g>
      </g>
    </svg>
