<?xml version="1.0" encoding="UTF-8"?><svg id="Layer_1" xmlns="http://www.w3.org/2000/svg" xmlns:xlink="http://www.w3.org/1999/xlink" viewBox="0 0 690.37 751.72" fill="none">
      <defs>
        <linearGradient
          id="linear-gradient"
          x1="121.42"
          y1="168.64"
          x2="740.42"
          y2="582.64"
          gradientUnits="userSpaceOnUse"
        >
          <stop offset="0" stop-color="#4777ff" />
          <stop offset=".12" stop-color="#7e64d7" />
          <stop offset=".33" stop-color="#da4494" />
          <stop offset=".42" stop-color="#ff387a" />
          <stop offset=".81" stop-color="#ffd503" />
          <stop offset="1" stop-color="#00db00" />
        </linearGradient>
        <linearGradient
          id="linear-gradient-2"
          x1="-33.34"
          y1="114.2"
          x2="664.66"
          y2="750.2"
          xlink:href="#linear-gradient"
        />
      </defs>
      <g>
        <g>
          <path
            d="M686.3,486.58c1.77,4,2.31,8.54,3.82,14.39-2.8,9.46-5.35,20.07-9.07,30.26-6.12,16.77-14.34,32.55-26.18,46.09-11.34,12.97-18.31,13.85-31.86,3.12-20.44-16.21-35.47-36.74-45.81-60.67-4.03-9.33-3.52-18.79,.28-28.07,7.86-19.22,20.26-34.96,36.68-47.61,9.26-7.14,18.9-8.16,29.19-2.45,18.99,10.52,34.07,24.84,42.95,44.94Z"
            style="fill:url(#linear-gradient);"
          />
        </g>
        <g>
          <path
            d="M337.02,156.6c9.12-1.45,16.88-2.85,24.7-3.9,19.9-2.68,39.79-5.55,59.75-7.71,28.3-3.07,56.69-5.4,85.2-4.17,6.93,.3,13.84,1.67,20.68,2.94,2.87,.53,5.73,1.77,8.29,3.22,5.25,2.98,6.88,7.47,3.77,12.57-2.91,4.76-6.34,9.64-10.68,13.01-18.12,14.08-36.47,27.88-55.11,41.28-27.58,19.84-55.54,39.19-79.57,63.44-6.32,6.37-12.06,13.34-17.7,20.33-18.04,22.37-22.12,47.38-14.87,75.02,8.59,32.75,23.03,62.89,39.6,92.09,34.83,61.42,75.76,118.59,121.94,171.98,9.14,10.56,21.83,14.17,35.05,15.9,24.51,3.22,48.69,.33,73.48-4.85-1.03,1.52-1.61,2.58-2.38,3.48-25.8,30.26-53.3,58.75-86.46,81.13-12.58,8.49-25.85,15.55-41.04,18.46-14.29,2.74-26.59-.79-37.36-10.42-13.81-12.36-24.91-27.01-34.07-42.87-21.43-37.11-42.23-74.59-63.05-112.06-17.76-31.98-35.18-64.15-56.96-93.67-10.32-13.98-21.54-27.11-35.79-37.37-15.16-10.92-30.93-12.34-47.8-4.2-17.5,8.45-32.03,20.84-45.82,34.16-24.85,24.02-46.53,50.85-68.24,77.66-17.82,22-35.63,44-53.84,65.67-5.86,6.97-12.87,13.01-19.61,19.2-2.27,2.08-5.2,3.6-8.07,4.83-5.29,2.26-9.94,.59-10.77-4.96-1.11-7.45-1.68-15.31-.57-22.7,5.63-37.52,18.21-73.21,29.81-109.13,19.57-60.66,40.03-121.05,58.69-182,8.65-28.27,14.5-57.45,20.62-86.43,8.85-41.84-3.16-78.67-28.4-112.22-18.82-24.99-40.67-47.14-62.46-69.41-10.7-10.94-20.8-22.48-30.95-33.94-2.27-2.56-3.94-5.79-5.34-8.96C-2.11,13.45,.52,6.24,9.35,3.11,14.88,1.15,21.04-.15,26.87,.01c56.62,1.56,104.64,19.62,136.04,70.46,17.89,28.99,31.9,59.48,37.46,93.12,2.25,13.64,1.78,27.91,1.02,41.81-1.03,18.73-3.35,37.4-5.46,56.05-1.97,17.49-4.72,34.89-6.51,52.39-2.1,20.49-5.14,40.98-2.42,61.68,.09,.66,.06,1.34,.19,1.99,2.78,14.41,9.62,18.21,22.01,10.41,11.34-7.13,22.33-15.25,32.06-24.43,49.59-46.8,93.17-98.86,133.01-154.1,1.07-1.49,2.06-3.03,3.07-4.55,6.47-9.82,6.84-14.83-2.13-22.59-9.46-8.19-20.48-14.59-30.87-21.7-1.88-1.28-4.02-2.19-7.32-3.95Z"
            style="fill:url(#linear-gradient-2);"
          />
          <path
            d="M690.12,500.97c-2.8,9.46-5.35,20.07-9.07,30.26-6.12,16.77-14.34,32.55-26.18,46.09-11.34,12.97-18.31,13.85-31.86,3.12-20.44-16.21-35.47-36.74-45.81-60.67-4.03-9.33-3.52-18.79,.28-28.07,7.86-19.22,20.26-34.96,36.68-47.61,9.26-7.14,18.9-8.16,29.19-2.45,18.99,10.52,34.07,24.84,42.95,44.94,1.77,4,2.31,8.54,3.82,14.39Z"
            style="fill:none;"
          />
        </g>
      </g>
    </svg>
